<?xml version="1.0" encoding="UTF-8" standalone="no"?>
<!-- Generator: Adobe Illustrator 16.0.0, SVG Export Plug-In . SVG Version: 6.00 Build 0)  -->

<svg
   xmlns:dc="http://purl.org/dc/elements/1.1/"
   xmlns:cc="http://creativecommons.org/ns#"
   xmlns:rdf="http://www.w3.org/1999/02/22-rdf-syntax-ns#"
   xmlns:svg="http://www.w3.org/2000/svg"
   xmlns="http://www.w3.org/2000/svg"
   xmlns:sodipodi="http://sodipodi.sourceforge.net/DTD/sodipodi-0.dtd"
   xmlns:inkscape="http://www.inkscape.org/namespaces/inkscape"
   version="1.1"
   id="Layer_1"
   x="0px"
   y="0px"
   width="96.091003"
   height="81.267998"
   viewBox="0 0 96.091001 81.267998"
   enable-background="new 0 0 414.286 225"
   xml:space="preserve"
   sodipodi:docname="SVXNoShadow.svg"
   inkscape:version="0.92.4 (5da689c313, 2019-01-14)"><metadata
   id="metadata1283"><rdf:RDF><cc:Work
       rdf:about=""><dc:format>image/svg+xml</dc:format><dc:type
         rdf:resource="http://purl.org/dc/dcmitype/StillImage" /><dc:title></dc:title></cc:Work></rdf:RDF></metadata><defs
   id="defs1281" /><sodipodi:namedview
   pagecolor="#ffffff"
   bordercolor="#666666"
   borderopacity="1"
   objecttolerance="10"
   gridtolerance="10"
   guidetolerance="10"
   inkscape:pageopacity="0"
   inkscape:pageshadow="2"
   inkscape:window-width="1920"
   inkscape:window-height="1017"
   id="namedview1279"
   showgrid="false"
   inkscape:zoom="3.4372389"
   inkscape:cx="48.045005"
   inkscape:cy="9.0632575"
   inkscape:window-x="-8"
   inkscape:window-y="-8"
   inkscape:window-maximized="1"
   inkscape:current-layer="Layer_1"
   fit-margin-top="0"
   fit-margin-left="0"
   fit-margin-right="0"
   fit-margin-bottom="0" />
<path
   d="M 0,80.703 23.26,52.973 14.862,44.822 26.957,28.5 3.317,0 H 27.709 L 38.444,13.429 47.343,9.246 57.489,14.363 68.738,0 H 92.922 L 68.117,30.242 81.145,40.352 72.052,52.451 96.091,80.704 H 70.922 L 57.848,64.776 47.342,76.869 38.078,64.854 25.027,80.704 H 0 Z"
   id="path1050"
   inkscape:connector-curvature="0" />
<linearGradient
   id="path86_1_"
   gradientUnits="userSpaceOnUse"
   x1="344.47559"
   y1="428.79739"
   x2="531.77112"
   y2="428.79739"
   gradientTransform="matrix(0.706,0,0,-0.7004,49.985011,413.56892)">
	<stop
   offset="0"
   style="stop-color:#000000"
   id="stop1052" />
	<stop
   offset="1"
   style="stop-color:#000000;stop-opacity:0"
   id="stop1054" />
</linearGradient>
<radialGradient
   id="path86_2_"
   cx="690.09473"
   cy="-113.7261"
   r="188.6416"
   gradientTransform="matrix(0.3468,0,0,-0.353,119.96021,73.093419)"
   gradientUnits="userSpaceOnUse">
	<stop
   offset="0"
   style="stop-color:#000000"
   id="stop1057" />
	<stop
   offset="1"
   style="stop-color:#000000;stop-opacity:0"
   id="stop1059" />
</radialGradient>

<g
   id="path55_11_"
   inkscape:connector-curvature="0"
   transform="translate(-159.098,-75.207)">
	<linearGradient
   id="SVGID_1_"
   gradientUnits="userSpaceOnUse"
   x1="207.1436"
   y1="116.4199"
   x2="246.98441"
   y2="116.4199">
		<stop
   offset="0"
   style="stop-color:#545557"
   id="stop1063" />
		<stop
   offset="0.1065"
   style="stop-color:#626264"
   id="stop1065" />
		<stop
   offset="0.3054"
   style="stop-color:#858686"
   id="stop1067" />
		<stop
   offset="0.3973"
   style="stop-color:#989898"
   id="stop1069" />
		<stop
   offset="0.5426"
   style="stop-color:#9B9B9B"
   id="stop1071" />
		<stop
   offset="0.6567"
   style="stop-color:#A5A5A5"
   id="stop1073" />
		<stop
   offset="0.7602"
   style="stop-color:#B6B6B6"
   id="stop1075" />
		<stop
   offset="0.8574"
   style="stop-color:#CDCDCD"
   id="stop1077" />
		<stop
   offset="0.9495"
   style="stop-color:#EBEBEB"
   id="stop1079" />
		<stop
   offset="1"
   style="stop-color:#FFFFFF"
   id="stop1081" />
	</linearGradient>
	<path
   d="m 246.98,116.891 c -0.039,-1.803 -0.035,-3.523 -0.57,-5.247 -0.599,-1.903 -1.216,-3.752 -2.236,-5.439 -1.289,-2.083 -2.635,-4.012 -4.597,-5.446 -2.257,-1.839 -7.841,-4.984 -12.56,-4.886 -0.005,-0.006 -0.005,-0.014 -0.005,-0.019 -2.175,-0.053 -6.518,-0.07 -12.56,4.889 -1.041,0.972 -1.896,2.021 -2.91,2.985 -0.322,0.323 -2.864,2.646 -4.399,4.199 1.719,1.702 2.94,2.933 4.245,4.278 1.504,1.553 3.115,2.926 4.656,4.443 1.84,-2.238 6.082,-7.079 7.159,-7.677 0.034,-0.03 0.075,-0.057 0.104,-0.087 0.043,-0.013 0.09,-0.021 0.131,-0.032 1.092,-0.561 2.31,-0.882 3.602,-0.882 2.924,0 5.487,1.605 6.949,4.022 0.378,0.515 0.639,1.123 0.814,1.778 0.309,0.9 0.477,1.865 0.477,2.877 0,4.793 -3.688,8.675 -8.24,8.675 -0.412,0 -1.983,-0.041 -2.379,-0.105 0.369,0.553 0.885,1.679 1.146,2.256 0.607,1.33 0.896,2.533 1.125,3.988 0.256,1.635 0.129,2.204 0.129,3.982 0,0.271 -0.068,1.275 -0.052,1.551 2.021,-0.176 5.393,-0.506 7.281,-1.518 2.405,-1.016 4.651,-2.155 6.394,-4.248 1.855,-1.312 3.162,-3.587 4.236,-5.604 1.205,-2.679 2.139,-5.736 2.06,-8.733 z"
   id="path1084"
   inkscape:connector-curvature="0"
   style="fill:url(#SVGID_1_)" />
	<g
   id="g1155">
		<linearGradient
   id="SVGID_2_"
   gradientUnits="userSpaceOnUse"
   x1="207.1436"
   y1="116.4199"
   x2="246.98441"
   y2="116.4199">
			<stop
   offset="0"
   style="stop-color:#545557"
   id="stop1086" />
			<stop
   offset="0.0291"
   style="stop-color:#626264"
   id="stop1088" />
			<stop
   offset="0.0837"
   style="stop-color:#868687"
   id="stop1090" />
			<stop
   offset="0.1572"
   style="stop-color:#BFBFC0"
   id="stop1092" />
			<stop
   offset="0.2305"
   style="stop-color:#FFFFFF"
   id="stop1094" />
			<stop
   offset="0.2411"
   style="stop-color:#EDEDED"
   id="stop1096" />
			<stop
   offset="0.2922"
   style="stop-color:#9B9C9D"
   id="stop1098" />
			<stop
   offset="0.3285"
   style="stop-color:#68696A"
   id="stop1100" />
			<stop
   offset="0.3462"
   style="stop-color:#545557"
   id="stop1102" />
			<stop
   offset="0.3814"
   style="stop-color:#58585A"
   id="stop1104" />
			<stop
   offset="0.4121"
   style="stop-color:#626364"
   id="stop1106" />
			<stop
   offset="0.4411"
   style="stop-color:#747576"
   id="stop1108" />
			<stop
   offset="0.469"
   style="stop-color:#8D8E8E"
   id="stop1110" />
			<stop
   offset="0.4961"
   style="stop-color:#AEAEAE"
   id="stop1112" />
			<stop
   offset="0.5224"
   style="stop-color:#D5D5D4"
   id="stop1114" />
			<stop
   offset="0.5231"
   style="stop-color:#D6D6D5"
   id="stop1116" />
			<stop
   offset="0.6115"
   style="stop-color:#D3D3D3"
   id="stop1118" />
			<stop
   offset="0.6669"
   style="stop-color:#B8B8B8"
   id="stop1120" />
			<stop
   offset="0.7224"
   style="stop-color:#989898"
   id="stop1122" />
			<stop
   offset="0.7544"
   style="stop-color:#9B9B9B"
   id="stop1124" />
			<stop
   offset="0.7796"
   style="stop-color:#A5A5A5"
   id="stop1126" />
			<stop
   offset="0.8024"
   style="stop-color:#B6B6B6"
   id="stop1128" />
			<stop
   offset="0.8239"
   style="stop-color:#CDCDCD"
   id="stop1130" />
			<stop
   offset="0.8442"
   style="stop-color:#EBEBEB"
   id="stop1132" />
			<stop
   offset="0.8553"
   style="stop-color:#FFFFFF"
   id="stop1134" />
			<stop
   offset="0.8644"
   style="stop-color:#D8D8D9"
   id="stop1136" />
			<stop
   offset="0.8745"
   style="stop-color:#B5B5B6"
   id="stop1138" />
			<stop
   offset="0.8855"
   style="stop-color:#979798"
   id="stop1140" />
			<stop
   offset="0.8976"
   style="stop-color:#7E7F80"
   id="stop1142" />
			<stop
   offset="0.9112"
   style="stop-color:#6B6C6E"
   id="stop1144" />
			<stop
   offset="0.927"
   style="stop-color:#5E5F60"
   id="stop1146" />
			<stop
   offset="0.9472"
   style="stop-color:#565759"
   id="stop1148" />
			<stop
   offset="0.9867"
   style="stop-color:#545557"
   id="stop1150" />
		</linearGradient>
		<path
   d="m 226.323,96.844 v 0 c 0.069,0 0.137,0 0.203,0.001 l 0.031,0.037 0.48,-0.01 0.197,-0.002 c 4.13,0 9.334,2.727 11.71,4.664 l 0.021,0.017 0.021,0.015 c 1.728,1.264 2.983,2.979 4.331,5.157 0.955,1.579 1.533,3.299 2.137,5.218 0.456,1.468 0.485,2.987 0.517,4.594 l 0.008,0.383 c 0.064,2.441 -0.594,5.223 -1.956,8.268 -1.021,1.916 -2.25,4.051 -3.915,5.229 l -0.107,0.075 -0.084,0.102 c -1.521,1.826 -3.504,2.906 -6.014,3.967 l -0.043,0.018 -0.041,0.021 c -1.434,0.769 -4.017,1.121 -5.772,1.299 0.009,-0.194 0.016,-0.36 0.016,-0.45 0,-0.482 0.01,-0.874 0.019,-1.223 0.022,-0.954 0.039,-1.643 -0.16,-2.916 -0.201,-1.279 -0.487,-2.68 -1.201,-4.245 -0.108,-0.238 -0.226,-0.493 -0.347,-0.749 0.321,0.008 0.578,0.012 0.668,0.012 5.095,0 9.24,-4.34 9.24,-9.675 0,-1.085 -0.175,-2.151 -0.52,-3.169 -0.215,-0.789 -0.53,-1.475 -0.938,-2.041 -1.709,-2.798 -4.615,-4.468 -7.782,-4.468 -1.37,0 -2.698,0.315 -3.949,0.937 -0.022,0.005 -0.045,0.012 -0.066,0.018 l -0.253,0.075 -0.147,0.153 c -1.354,0.857 -5.096,5.191 -6.656,7.032 -0.419,-0.398 -0.84,-0.788 -1.252,-1.169 -0.87,-0.806 -1.77,-1.64 -2.61,-2.508 -1.104,-1.138 -2.167,-2.214 -3.543,-3.582 0.968,-0.945 2.108,-2.011 2.852,-2.705 0.427,-0.398 0.735,-0.688 0.817,-0.77 0.508,-0.483 0.977,-0.985 1.43,-1.471 0.484,-0.52 0.943,-1.011 1.45,-1.486 5.086,-4.17 8.832,-4.653 11.208,-4.653 m 0,-1 c -2.339,0 -6.411,0.417 -11.87,4.898 -1.041,0.972 -1.896,2.021 -2.91,2.985 -0.322,0.323 -2.864,2.646 -4.399,4.199 1.719,1.702 2.94,2.933 4.245,4.278 1.504,1.553 3.115,2.926 4.656,4.443 1.84,-2.238 6.082,-7.079 7.159,-7.677 0.034,-0.03 0.075,-0.057 0.104,-0.087 0.043,-0.013 0.09,-0.021 0.131,-0.032 1.092,-0.561 2.31,-0.882 3.602,-0.882 2.924,0 5.487,1.605 6.949,4.022 0.378,0.515 0.639,1.123 0.814,1.778 0.309,0.9 0.477,1.865 0.477,2.877 0,4.793 -3.688,8.675 -8.24,8.675 -0.412,0 -1.983,-0.041 -2.379,-0.105 0.369,0.553 0.885,1.679 1.146,2.256 0.607,1.33 0.896,2.533 1.125,3.988 0.256,1.635 0.129,2.204 0.129,3.982 0,0.271 -0.068,1.275 -0.052,1.551 2.021,-0.176 5.393,-0.506 7.281,-1.518 2.405,-1.016 4.651,-2.155 6.394,-4.248 1.855,-1.312 3.162,-3.587 4.236,-5.604 1.203,-2.681 2.137,-5.737 2.058,-8.734 h 10e-4 c -0.039,-1.803 -0.035,-3.523 -0.57,-5.247 -0.599,-1.903 -1.216,-3.752 -2.236,-5.439 -1.289,-2.083 -2.635,-4.012 -4.597,-5.446 -2.222,-1.811 -7.67,-4.888 -12.342,-4.888 -0.072,0 -0.146,0.001 -0.218,0.002 -0.005,-0.006 -0.005,-0.014 -0.005,-0.019 -0.209,-0.003 -0.439,-0.008 -0.689,-0.008 z"
   id="path1153"
   inkscape:connector-curvature="0"
   style="fill:url(#SVGID_2_)" />
	</g>
</g>
<g
   id="path55_3_"
   inkscape:connector-curvature="0"
   transform="translate(-159.098,-75.207)">
	
		<linearGradient
   id="SVGID_3_"
   gradientUnits="userSpaceOnUse"
   x1="-87.931602"
   y1="139.31979"
   x2="-48.084"
   y2="139.31979"
   gradientTransform="matrix(-0.9996,-0.0288,0.0288,-0.9996,114.4489,253.8722)">
		<stop
   offset="0"
   style="stop-color:#545557"
   id="stop1158" />
		<stop
   offset="0.1065"
   style="stop-color:#626264"
   id="stop1160" />
		<stop
   offset="0.3054"
   style="stop-color:#858686"
   id="stop1162" />
		<stop
   offset="0.3973"
   style="stop-color:#989898"
   id="stop1164" />
		<stop
   offset="0.5426"
   style="stop-color:#9B9B9B"
   id="stop1166" />
		<stop
   offset="0.6567"
   style="stop-color:#A5A5A5"
   id="stop1168" />
		<stop
   offset="0.7602"
   style="stop-color:#B6B6B6"
   id="stop1170" />
		<stop
   offset="0.8574"
   style="stop-color:#CDCDCD"
   id="stop1172" />
		<stop
   offset="0.9495"
   style="stop-color:#EBEBEB"
   id="stop1174" />
		<stop
   offset="1"
   style="stop-color:#FFFFFF"
   id="stop1176" />
	</linearGradient>
	<path
   d="m 166.544,115.437 c -0.013,1.803 -0.066,3.523 0.42,5.262 0.543,1.919 1.106,3.785 2.078,5.501 1.229,2.119 2.518,4.086 4.438,5.576 2.203,1.903 7.694,5.208 12.414,5.246 0.005,0.006 0.004,0.014 0.004,0.019 2.173,0.115 6.514,0.258 12.695,-4.525 1.068,-0.941 1.954,-1.966 2.995,-2.9 0.331,-0.313 2.939,-2.32 4.519,-3.828 -1.669,-1.751 -2.854,-3.017 -4.12,-4.398 -1.458,-1.596 -3.03,-3.015 -4.526,-4.576 -1.903,2.185 -6.283,6.659 -7.377,7.226 -0.035,0.029 -0.077,0.054 -0.107,0.084 -0.043,0.011 -0.09,0.018 -0.131,0.028 -1.107,0.528 -2.334,0.814 -3.626,0.777 -2.923,-0.084 -5.438,-1.763 -6.831,-4.221 -0.363,-0.525 -0.605,-1.141 -0.763,-1.801 -0.282,-0.909 -0.423,-1.879 -0.394,-2.89 0.139,-4.791 3.936,-8.565 8.486,-8.435 0.412,0.013 2.4,0.105 2.795,0.182 -0.354,-0.563 -1.256,-1.711 -1.5,-2.295 -2.563,-5.018 -2.683,-9.154 -2.691,-9.43 -2.024,0.117 -3.137,0.342 -5.559,1.185 -2.434,0.946 -4.711,2.021 -6.514,4.062 -1.893,1.258 -3.264,3.495 -4.396,5.48 -1.28,2.646 -2.302,5.674 -2.308,8.672 h -10e-4 z"
   id="path1179"
   inkscape:connector-curvature="0"
   style="fill:url(#SVGID_3_)" />
	<g
   id="g1250">
		<linearGradient
   id="SVGID_4_"
   gradientUnits="userSpaceOnUse"
   x1="206.3564"
   y1="117.1421"
   x2="166.5253"
   y2="115.9946">
			<stop
   offset="0"
   style="stop-color:#545557"
   id="stop1181" />
			<stop
   offset="0.0291"
   style="stop-color:#626264"
   id="stop1183" />
			<stop
   offset="0.0837"
   style="stop-color:#868687"
   id="stop1185" />
			<stop
   offset="0.1572"
   style="stop-color:#BFBFC0"
   id="stop1187" />
			<stop
   offset="0.2305"
   style="stop-color:#FFFFFF"
   id="stop1189" />
			<stop
   offset="0.2411"
   style="stop-color:#EDEDED"
   id="stop1191" />
			<stop
   offset="0.2922"
   style="stop-color:#9B9C9D"
   id="stop1193" />
			<stop
   offset="0.3285"
   style="stop-color:#68696A"
   id="stop1195" />
			<stop
   offset="0.3462"
   style="stop-color:#545557"
   id="stop1197" />
			<stop
   offset="0.3814"
   style="stop-color:#58585A"
   id="stop1199" />
			<stop
   offset="0.4121"
   style="stop-color:#626364"
   id="stop1201" />
			<stop
   offset="0.4411"
   style="stop-color:#747576"
   id="stop1203" />
			<stop
   offset="0.469"
   style="stop-color:#8D8E8E"
   id="stop1205" />
			<stop
   offset="0.4961"
   style="stop-color:#AEAEAE"
   id="stop1207" />
			<stop
   offset="0.5224"
   style="stop-color:#D5D5D4"
   id="stop1209" />
			<stop
   offset="0.5231"
   style="stop-color:#D6D6D5"
   id="stop1211" />
			<stop
   offset="0.6115"
   style="stop-color:#D3D3D3"
   id="stop1213" />
			<stop
   offset="0.6669"
   style="stop-color:#B8B8B8"
   id="stop1215" />
			<stop
   offset="0.7224"
   style="stop-color:#989898"
   id="stop1217" />
			<stop
   offset="0.7544"
   style="stop-color:#9B9B9B"
   id="stop1219" />
			<stop
   offset="0.7796"
   style="stop-color:#A5A5A5"
   id="stop1221" />
			<stop
   offset="0.8024"
   style="stop-color:#B6B6B6"
   id="stop1223" />
			<stop
   offset="0.8239"
   style="stop-color:#CDCDCD"
   id="stop1225" />
			<stop
   offset="0.8442"
   style="stop-color:#EBEBEB"
   id="stop1227" />
			<stop
   offset="0.8553"
   style="stop-color:#FFFFFF"
   id="stop1229" />
			<stop
   offset="0.8644"
   style="stop-color:#D8D8D9"
   id="stop1231" />
			<stop
   offset="0.8745"
   style="stop-color:#B5B5B6"
   id="stop1233" />
			<stop
   offset="0.8855"
   style="stop-color:#979798"
   id="stop1235" />
			<stop
   offset="0.8976"
   style="stop-color:#7E7F80"
   id="stop1237" />
			<stop
   offset="0.9112"
   style="stop-color:#6B6C6E"
   id="stop1239" />
			<stop
   offset="0.927"
   style="stop-color:#5E5F60"
   id="stop1241" />
			<stop
   offset="0.9472"
   style="stop-color:#565759"
   id="stop1243" />
			<stop
   offset="0.9867"
   style="stop-color:#545557"
   id="stop1245" />
		</linearGradient>
		<path
   d="m 184.4,97.111 c 0.182,1.677 0.775,4.987 2.707,8.782 0.095,0.217 0.237,0.462 0.403,0.722 -0.433,-0.021 -0.755,-0.033 -0.764,-0.033 -0.086,-0.002 -0.172,-0.004 -0.258,-0.004 -5.038,0 -9.104,4.133 -9.256,9.409 -0.032,1.083 0.113,2.154 0.428,3.183 0.193,0.796 0.489,1.491 0.879,2.066 1.629,2.847 4.486,4.599 7.651,4.69 0.084,0.002 0.168,0.003 0.252,0.003 1.283,0 2.535,-0.277 3.723,-0.826 0.018,-0.004 0.036,-0.008 0.053,-0.013 l 0.269,-0.066 0.152,-0.152 c 1.309,-0.77 4.917,-4.473 6.854,-6.597 0.409,0.41 0.819,0.813 1.221,1.208 0.846,0.83 1.721,1.688 2.536,2.58 1.081,1.181 2.113,2.285 3.431,3.674 -0.971,0.861 -2.115,1.787 -2.863,2.392 -0.53,0.43 -0.791,0.641 -0.896,0.741 -0.521,0.469 -1.005,0.957 -1.472,1.43 -0.5,0.505 -0.972,0.983 -1.493,1.443 -3.776,2.916 -7.331,4.334 -10.866,4.334 -0.249,0 -0.48,-0.006 -0.694,-0.015 l -0.031,-0.037 -0.463,-0.004 c -4.559,-0.037 -9.897,-3.387 -11.768,-5.003 l -0.02,-0.017 -0.021,-0.017 c -1.69,-1.312 -2.896,-3.063 -4.181,-5.279 -0.909,-1.605 -1.438,-3.341 -1.985,-5.277 -0.361,-1.29 -0.396,-2.609 -0.391,-3.992 h 0.008 l 0.002,-0.998 c 0.005,-2.441 0.743,-5.203 2.193,-8.208 1.076,-1.886 2.366,-3.985 4.063,-5.113 l 0.109,-0.073 0.087,-0.098 c 1.573,-1.781 3.587,-2.804 6.093,-3.779 1.875,-0.652 2.91,-0.918 4.308,-1.056 m 0.921,-1.072 c -2.024,0.117 -3.137,0.342 -5.559,1.185 -2.434,0.946 -4.711,2.021 -6.514,4.062 -1.893,1.258 -3.264,3.495 -4.396,5.48 -1.28,2.646 -2.302,5.674 -2.308,8.672 h -0.002 c -0.013,1.803 -0.066,3.523 0.42,5.262 0.543,1.919 1.106,3.785 2.078,5.501 1.229,2.119 2.518,4.086 4.438,5.576 2.203,1.903 7.694,5.208 12.414,5.246 0.005,0.006 0.004,0.014 0.004,0.019 0.344,0.019 0.742,0.037 1.192,0.037 2.399,0 6.299,-0.536 11.503,-4.563 1.068,-0.941 1.954,-1.966 2.995,-2.9 0.331,-0.313 2.939,-2.32 4.519,-3.828 -1.669,-1.751 -2.854,-3.017 -4.12,-4.398 -1.458,-1.596 -3.03,-3.015 -4.526,-4.576 -1.903,2.185 -6.283,6.659 -7.377,7.226 -0.035,0.029 -0.077,0.054 -0.107,0.084 -0.043,0.011 -0.09,0.018 -0.131,0.028 -1.043,0.498 -2.192,0.78 -3.402,0.78 -0.074,0 -0.149,-0.001 -0.224,-0.003 -2.923,-0.084 -5.438,-1.763 -6.831,-4.221 -0.363,-0.525 -0.605,-1.141 -0.763,-1.801 -0.282,-0.909 -0.423,-1.879 -0.394,-2.89 0.136,-4.71 3.809,-8.438 8.257,-8.438 0.077,0 0.152,0.001 0.229,0.003 0.412,0.013 2.4,0.105 2.795,0.182 -0.354,-0.563 -1.256,-1.711 -1.5,-2.295 -2.561,-5.018 -2.681,-9.155 -2.69,-9.43 z"
   id="path1248"
   inkscape:connector-curvature="0"
   style="fill:url(#SVGID_4_)" />
	</g>
</g>
<g
   id="path59_2_"
   inkscape:connector-curvature="0"
   transform="translate(-159.098,-75.207)">
	<linearGradient
   id="SVGID_5_"
   gradientUnits="userSpaceOnUse"
   x1="187.209"
   y1="148.47121"
   x2="224.9946"
   y2="83.024498">
		<stop
   offset="0"
   style="stop-color:#BA8738"
   id="stop1253" />
		<stop
   offset="0.4877"
   style="stop-color:#FEFFC6"
   id="stop1255" />
		<stop
   offset="0.9754"
   style="stop-color:#BA8738"
   id="stop1257" />
	</linearGradient>
	<path
   d="m 225.464,129.579 c -1.076,-4.521 -2.879,-5.824 -2.951,-5.863 -0.156,-0.039 -4.293,-3.932 -6.559,-6.072 -0.174,-0.002 -15.119,-14.677 -16.797,-17.341 -0.025,-0.025 -0.049,-0.051 -0.072,-0.078 -0.051,-0.098 -0.098,-0.195 -0.146,-0.299 -0.717,-1.293 -1.133,-2.788 -1.133,-4.393 0,-2.623 1.104,-4.969 2.846,-6.57 0.156,-0.189 0.752,-0.676 0.896,-0.725 1.311,-0.904 2.871,-1.434 4.553,-1.434 4.58,0 8.293,3.906 8.293,8.729 0,0.263 0.09,3.334 0.064,3.584 1.219,-0.895 3.012,-2.172 5.496,-3.176 2.471,-1 3.451,-1.199 6.006,-1.35 -0.055,-1.201 -0.23,-3.566 -0.654,-4.762 -0.77,-2.049 -1.51,-4.021 -2.822,-5.768 -1.689,-2.887 -4.203,-4.953 -7.012,-6.533 -1.648,-0.798 -3.205,-1.717 -4.996,-1.935 -2.076,-0.233 -4.115,-0.517 -6.205,-0.239 -2.172,0.039 -4.252,0.441 -6.154,1.583 -0.994,0.423 -1.969,0.874 -2.855,1.511 -1.783,1.266 -3.467,2.361 -4.74,4.244 -1.971,2.869 -4.006,6.461 -4.182,10.076 -0.07,0.809 -0.086,1.614 -0.088,2.428 0.152,0.699 0.092,1.41 0.211,2.117 0.004,0.035 0.008,0.064 0.012,0.1 0.189,1.305 0.424,5.429 4.867,11.413 0.824,0.863 2.957,3.133 3.869,4.184 0.736,0.85 1.578,1.662 2.363,2.58 -0.012,0.023 8.24,8.797 8.4,8.908 0.01,-0.012 0.023,-0.02 0.029,-0.033 l 6.402,6.41 c 1.355,1.598 1.813,3.734 1.896,5.816 0.035,0.725 -0.092,1.414 -0.307,2.086 -0.928,3.727 -4.141,6.48 -7.969,6.48 -3.832,0 -7.045,-2.756 -7.965,-6.49 -0.037,-0.094 -0.074,-0.182 -0.105,-0.275 -0.25,-0.838 -0.314,-2.162 -0.006,-3.637 0.02,-0.098 0.082,-0.355 0.219,-0.773 -1.271,0.971 -2.054,1.418 -3.469,2.098 -1.77,0.815 -3.242,1.354 -4.75,1.75 -1.195,0.313 -2.427,0.457 -3.699,0.334 0.178,5.451 1.68,6.553 2.496,7.959 2.357,4.074 7.225,7.529 9.314,8.453 3.455,1.441 7.074,2.188 10.793,1.592 3.063,-0.455 6.051,-1.656 8.586,-3.529 3.133,-2.053 5.41,-5.135 6.92,-8.646 0.99,-1.953 1.494,-4.127 1.523,-6.324 0.088,-1.217 0.074,-1.73 0.078,-2.43 0.014,-2.178 -0.127,-4.196 -0.496,-5.76 z"
   id="path1260"
   inkscape:connector-curvature="0"
   style="fill:url(#SVGID_5_)" />
	<g
   id="g1275">
		<linearGradient
   id="SVGID_6_"
   gradientUnits="userSpaceOnUse"
   x1="186.25101"
   y1="115.8569"
   x2="225.96291"
   y2="115.8569">
			<stop
   offset="0"
   style="stop-color:#BA8738"
   id="stop1262" />
			<stop
   offset="0.2266"
   style="stop-color:#FEFFC6"
   id="stop1264" />
			<stop
   offset="0.468"
   style="stop-color:#BA8738"
   id="stop1266" />
			<stop
   offset="0.6749"
   style="stop-color:#FEFFC6"
   id="stop1268" />
			<stop
   offset="0.9754"
   style="stop-color:#BA8738"
   id="stop1270" />
		</linearGradient>
		<path
   d="m 206.107,76.24 v 0 c 1.221,0 2.431,0.139 3.713,0.286 l 0.534,0.061 c 1.315,0.16 2.54,0.774 3.837,1.424 0.271,0.135 0.542,0.271 0.816,0.405 3.025,1.707 5.188,3.719 6.612,6.151 l 0.029,0.05 0.035,0.046 c 1.225,1.629 1.933,3.515 2.679,5.5 0.267,0.751 0.443,2.17 0.54,3.499 -2.043,0.168 -3.133,0.465 -5.324,1.352 -1.69,0.683 -3.083,1.495 -4.146,2.196 -0.006,-0.239 -0.012,-0.507 -0.02,-0.808 -0.011,-0.444 -0.02,-0.789 -0.02,-0.869 0,-5.364 -4.169,-9.729 -9.293,-9.729 -1.805,0 -3.558,0.546 -5.075,1.579 -0.382,0.212 -0.873,0.653 -1.078,0.869 -1.997,1.85 -3.142,4.501 -3.142,7.281 0,1.695 0.429,3.371 1.242,4.848 0.05,0.105 0.098,0.205 0.15,0.305 l 0.053,0.102 0.075,0.087 c 0.014,0.016 0.028,0.032 0.042,0.048 1.059,1.589 5.481,6.161 9.042,9.751 5.265,5.311 7.106,7.08 7.881,7.67 l -0.023,0.024 c 4.938,4.666 6.216,5.838 6.691,6.168 l -0.005,0.007 c 0.016,0.012 1.567,1.191 2.536,5.264 0.325,1.378 0.484,3.236 0.472,5.524 l -0.001,0.303 c -0.001,0.567 -0.002,1.058 -0.074,2.061 l -0.003,0.029 v 0.029 c -0.027,2.079 -0.518,4.114 -1.415,5.886 l -0.015,0.028 -0.013,0.029 c -1.554,3.615 -3.758,6.376 -6.549,8.204 l -0.023,0.016 -0.022,0.017 c -2.367,1.749 -5.182,2.905 -8.15,3.347 -0.802,0.128 -1.626,0.193 -2.45,0.193 -2.473,0 -5.023,-0.563 -7.78,-1.713 -1.907,-0.843 -6.614,-4.169 -8.854,-8.04 -0.16,-0.275 -0.331,-0.523 -0.512,-0.786 -0.694,-1.006 -1.542,-2.234 -1.793,-5.628 0.943,-0.013 1.892,-0.146 2.898,-0.41 1.592,-0.419 3.108,-0.977 4.929,-1.815 0.617,-0.297 1.129,-0.555 1.625,-0.84 -0.054,0.941 0.028,1.829 0.249,2.567 0.03,0.091 0.065,0.178 0.101,0.268 1.074,4.231 4.732,7.182 8.918,7.182 4.191,0 7.859,-2.962 8.932,-7.207 0.268,-0.85 0.38,-1.637 0.343,-2.399 -0.111,-2.762 -0.809,-4.862 -2.133,-6.424 l -0.026,-0.03 -0.029,-0.029 -6.401,-6.41 -1.045,-1.045 -0.009,0.02 c -2.112,-2.222 -6.855,-7.272 -7.291,-7.753 l -0.034,-0.039 c -0.429,-0.502 -0.87,-0.969 -1.297,-1.42 -0.378,-0.401 -0.736,-0.779 -1.071,-1.166 -0.949,-1.093 -3.111,-3.39 -3.858,-4.174 -3.928,-5.309 -4.397,-8.988 -4.598,-10.562 -0.017,-0.132 -0.032,-0.249 -0.042,-0.316 l -0.012,-0.1 -0.003,-0.028 -0.004,-0.028 c -0.045,-0.267 -0.06,-0.554 -0.076,-0.857 -0.02,-0.382 -0.04,-0.777 -0.121,-1.194 0.002,-0.677 0.016,-1.465 0.086,-2.279 0.174,-3.593 2.37,-7.176 4.011,-9.565 1.063,-1.571 2.441,-2.543 4.037,-3.668 l 0.458,-0.324 c 0.766,-0.55 1.619,-0.958 2.664,-1.403 l 0.063,-0.027 0.06,-0.036 c 1.569,-0.941 3.367,-1.399 5.658,-1.44 l 0.057,-0.001 0.057,-0.008 c 0.537,-0.071 1.096,-0.106 1.705,-0.106 m 0,-1 c -0.609,0 -1.221,0.033 -1.837,0.115 -2.172,0.039 -4.252,0.441 -6.154,1.583 -0.994,0.423 -1.969,0.874 -2.855,1.511 -1.783,1.266 -3.467,2.361 -4.74,4.244 -1.971,2.869 -4.006,6.461 -4.182,10.076 -0.07,0.809 -0.086,1.614 -0.088,2.428 0.152,0.699 0.092,1.41 0.211,2.117 0.004,0.035 0.008,0.064 0.012,0.1 0.189,1.305 0.424,5.429 4.867,11.413 0.824,0.863 2.957,3.133 3.869,4.184 0.736,0.85 1.578,1.662 2.363,2.58 -0.012,0.023 8.24,8.797 8.4,8.908 0.01,-0.012 0.023,-0.02 0.029,-0.033 l 6.402,6.41 c 1.355,1.598 1.813,3.734 1.896,5.816 0.035,0.725 -0.092,1.414 -0.307,2.086 -0.928,3.727 -4.141,6.48 -7.969,6.48 -3.832,0 -7.045,-2.756 -7.965,-6.49 -0.037,-0.094 -0.074,-0.182 -0.105,-0.275 -0.25,-0.838 -0.314,-2.162 -0.006,-3.637 0.02,-0.098 0.082,-0.355 0.219,-0.773 -1.271,0.971 -2.054,1.418 -3.469,2.098 -1.77,0.815 -3.242,1.354 -4.75,1.75 -0.908,0.237 -1.836,0.378 -2.788,0.378 -0.301,0 -0.605,-0.015 -0.912,-0.044 0.178,5.451 1.68,6.553 2.496,7.959 2.357,4.074 7.225,7.529 9.314,8.453 2.642,1.103 5.38,1.798 8.185,1.798 0.863,0 1.733,-0.065 2.608,-0.206 3.063,-0.455 6.051,-1.656 8.586,-3.529 3.133,-2.053 5.41,-5.135 6.92,-8.646 0.99,-1.953 1.494,-4.127 1.523,-6.324 0.088,-1.217 0.074,-1.73 0.078,-2.43 0.012,-2.178 -0.129,-4.195 -0.498,-5.76 -1.076,-4.521 -2.879,-5.824 -2.951,-5.863 -0.156,-0.039 -4.293,-3.932 -6.559,-6.072 -0.174,-0.002 -15.119,-14.677 -16.797,-17.341 -0.025,-0.025 -0.049,-0.051 -0.072,-0.078 -0.051,-0.098 -0.098,-0.195 -0.146,-0.299 -0.717,-1.293 -1.133,-2.788 -1.133,-4.393 0,-2.623 1.104,-4.969 2.846,-6.57 0.156,-0.189 0.752,-0.676 0.896,-0.725 1.311,-0.904 2.871,-1.434 4.553,-1.434 4.58,0 8.293,3.906 8.293,8.729 0,0.263 0.09,3.334 0.064,3.584 1.219,-0.895 3.012,-2.172 5.496,-3.176 2.471,-1 3.451,-1.199 6.006,-1.35 -0.055,-1.201 -0.23,-3.566 -0.654,-4.762 -0.77,-2.049 -1.51,-4.021 -2.822,-5.768 -1.689,-2.887 -4.203,-4.953 -7.012,-6.533 -1.648,-0.798 -3.205,-1.717 -4.996,-1.935 -1.461,-0.164 -2.908,-0.354 -4.365,-0.354 z"
   id="path1273"
   inkscape:connector-curvature="0"
   style="fill:url(#SVGID_6_)" />
	</g>
</g>
</svg>